<svg id="Layer_1" data-name="Layer 1" xmlns="http://www.w3.org/2000/svg" width="4.5in" height="2.03in" viewBox="0 0 324 145.83"><defs><style>.cls-1{fill:#fff;}.cls-2{fill:#a7a9ac;}.cls-3{fill:#3c664d;}</style></defs><title>carpinito-brothers-green-shield-white</title><path class="cls-1" d="M140.31,92.11a8.61,8.61,0,1,0,6.27,2.52A8.51,8.51,0,0,0,140.31,92.11Zm3.81,12.71a5.38,5.38,0,0,1-7.61,0h0a6,6,0,0,1,0-7.85,5.38,5.38,0,0,1,7.61,0h0A6,6,0,0,1,144.12,104.82Z"/><path class="cls-1" d="M109.67,100.41c.79-.52,1.21-1.56,1.27-3.12q-.25-4.92-4.69-5.17H96.92v17.56h9.89c3.38-.19,5.15-2,5.31-5.26A5,5,0,0,0,109.67,100.41Zm-9.22-4.8h5c1.39,0,2.1.5,2.14,1.36a2,2,0,0,1-1.79,2.19,2.54,2.54,0,0,1-.39,0h-4.92Zm5.74,11.33h-5.74v-4.3h5.78c1.62,0,2.45.63,2.49,1.76a2.29,2.29,0,0,1-2,2.54A2.26,2.26,0,0,1,106.19,106.94Z"/><path class="cls-1" d="M121.41,75c3.58-.26,7.15-.48,10.73-.67q-3-9.48-6-19c3.72-1.17,5.68-3.71,5.7-7.45q0-7.34.08-14.66c0-4.3-3.92-7.66-8.77-7.45q-10.05.45-20.09,1.09l-.39,49.71c3.37-.33,6.74-.63,10.11-.92q.06-9.42.13-18.84l3.6-.26Q119,65.84,121.41,75ZM113.1,35.31q4.37-.26,8.75-.48,0,6.24-.08,12.47-4.38.24-8.76.54Z"/><path class="cls-1" d="M129.44,97.17c0-3.38-2-5.06-6.16-5.06h-7.66v17.57h3.52v-7.26h3.21l4.2,7.26h4L126.2,102Q129.44,101,129.44,97.17Zm-5.38,2h-4.92V95.4h5c1.39,0,2.11.65,2.15,1.8s-.82,1.91-2.23,1.94Z"/><polygon class="cls-1" points="180.37 99.14 172.18 99.14 172.18 92.11 168.66 92.11 168.66 109.68 172.18 109.68 172.18 102.42 180.37 102.42 180.37 109.68 183.88 109.67 183.88 92.09 180.37 92.09 180.37 99.14"/><polygon class="cls-1" points="150.82 95.39 156.68 95.39 156.68 109.68 160.19 109.68 160.19 95.39 166.05 95.39 166.05 92.11 150.82 92.11 150.82 95.39"/><polygon class="cls-1" points="88.88 102.98 88.88 99.53 61.36 101.45 88.88 102.98"/><path class="cls-1" d="M147,55.16c3.33-.11,6.67-.16,10-.16,4.88,0,8.85-3.5,8.84-7.77V32.64c0-4.26-4-7.75-8.81-7.71q-10,.08-20,.37-.09,24.4-.2,48.82c3.38-.16,6.77-.29,10.15-.39Q146.94,64.45,147,55.16Zm0-21.22q4.38-.09,8.76-.14V46.13c-2.93,0-5.86.09-8.78.15Z"/><path class="cls-1" d="M180.09,73.71Q180,49.38,180,25.05c-3.36-.06-6.72-.11-10.08-.13q0,24.3.05,48.59C173.32,73.55,176.7,73.62,180.09,73.71Z"/><path class="cls-1" d="M89.45,27.86c-3.84.29-7.68.61-11.52.93Q71.81,54.67,65.74,81.07c3.51-.49,7-1,10.54-1.42l1.56-7.1q5.47-.66,11-1.28c.48,2.22,1,4.45,1.45,6.67q5.29-.61,10.61-1.15Q95.15,52.52,89.45,27.86ZM79.94,63.08q1.84-8,3.7-15.87,1.62,7.57,3.25,15.11Z"/><path class="cls-1" d="M195.14,49.26Q200.23,62,205.35,75c3,.21,5.9.43,8.84.68Q214,51,213.84,26.27c-3.35-.18-6.71-.35-10.07-.49q.06,11,.13,21.93-4.34-11.19-8.64-22.26-5.16-.18-10.32-.3.09,24.36.17,48.72c3.38.13,6.77.28,10.15.46Z"/><path class="cls-1" d="M63.76,69q-5.77.72-11.54,1.48v8.16l-10,1.4q.06-19.17.13-38.37l10-1.08v8.17q5.77-.66,11.58-1.27L64,38c0-5.2-4.48-9-10.07-8.51q-6.49.61-13,1.27c-5.58.55-10.12,5.39-10.11,10.75V83c0,5.37,4.44,9,9.93,8.2l12.82-1.9c5.53-.82,10.09-5.7,10.13-10.9Z"/><path class="cls-1" d="M241.46,37.29q.16,20.58.34,41.16c3.33.4,6.67.82,10,1.25q-.17-20.74-.34-41.5c3.13.29,6.25.6,9.38.92,0-3.11,0-6.23-.07-9.34Q246.42,28.43,232,27.4c0,3,.05,6.08.08,9.12C235.19,36.76,238.33,37,241.46,37.29Z"/><polygon class="cls-1" points="239.41 102.98 266.93 101.45 239.41 99.53 239.41 102.98"/><path class="cls-1" d="M286.8,30.76q-6.49-.66-13-1.27C268.22,29,263.7,32.8,263.74,38q.13,20.2.28,40.4c0,5.2,4.59,10.08,10.12,10.9L287,91.24c5.5.84,9.94-2.83,9.94-8.2V41.51C296.92,36.15,292.38,31.31,286.8,30.76ZM275.54,78.6l-.21-38,10,1.08.12,38.37Z"/><polygon class="cls-1" points="187.63 109.68 200.52 109.68 200.52 106.4 191.15 106.4 191.15 102.41 198.19 102.41 198.19 99.14 191.15 99.14 191.15 95.39 200.54 95.39 200.54 92.11 187.63 92.12 187.63 109.68"/><path class="cls-1" d="M231.32,100.6a8.74,8.74,0,0,0-4-1.46,4.68,4.68,0,0,1-2.7-1.06,1.38,1.38,0,0,1,0-1.7c.39-.67,1.29-1,2.7-1a4.07,4.07,0,0,1,3.28,1.4l2.34-2.34a8.18,8.18,0,0,0-2.52-1.76,9.77,9.77,0,0,0-3.79-.58,7,7,0,0,0-4.11,1.41,4.37,4.37,0,0,0-2,3.74,3.88,3.88,0,0,0,1.76,3.63,9.34,9.34,0,0,0,3.87,1.29c1.56.16,2.53.57,2.92,1.23a1.86,1.86,0,0,1,0,2c-.39.67-1.36,1-2.92,1a5.6,5.6,0,0,1-4-1.64l-2.34,2.34a8.89,8.89,0,0,0,2.81,1.88,10.37,10.37,0,0,0,4.09.7,7.11,7.11,0,0,0,4.52-1.52,4.54,4.54,0,0,0,1.94-3.63A4.41,4.41,0,0,0,231.32,100.6Z"/><path class="cls-1" d="M311.24,11.11,160.2,1,12.76,11.11a7.61,7.61,0,0,0-7.6,7.59v86.41a8.66,8.66,0,0,0,6.67,8.3l145.16,31a23.53,23.53,0,0,0,8.93,0l146.24-31a8.67,8.67,0,0,0,6.68-8.3V18.7A7.61,7.61,0,0,0,311.24,11.11Zm3.72,94a4.85,4.85,0,0,1-3.63,4.52l-146.24,31a20.13,20.13,0,0,1-7.26,0l-145.16-31A4.84,4.84,0,0,1,9,105.11V18.7A3.73,3.73,0,0,1,12.76,15h0L159.08,4.86,311.24,15A3.73,3.73,0,0,1,315,18.7h0Z"/><path class="cls-1" d="M228.89,27.18c-3.36-.22-6.71-.44-10.07-.63q.18,24.76.37,49.51c3.37.31,6.74.65,10.1,1Q229.1,52.11,228.89,27.18Z"/><path class="cls-1" d="M217.89,97.17c0-3.38-2-5.06-6.15-5.06h-7.66v17.57h3.51v-7.26h3.22l4.2,7.26h4L214.66,102C216.82,101.32,217.89,99.71,217.89,97.17Zm-5.37,2h-4.93V95.4h5c1.39,0,2.11.65,2.14,1.8s-.8,1.91-2.21,1.94Z"/><path class="cls-2" d="M311.24,5.94,159.8,0,12.8,5.94A12.77,12.77,0,0,0,0,18.68v86.43a14,14,0,0,0,10.71,13.35l145.16,26.83a28.76,28.76,0,0,0,11.17,0l146.24-26.85A13.92,13.92,0,0,0,324,105.11V18.7A12.78,12.78,0,0,0,311.24,5.94Zm7.6,99.17a8.67,8.67,0,0,1-6.68,8.3l-146.24,31a23.53,23.53,0,0,1-8.93,0l-145.16-31a8.66,8.66,0,0,1-6.67-8.3V18.7a7.61,7.61,0,0,1,7.6-7.59L160.2,1l151,10.13a7.61,7.61,0,0,1,7.6,7.59Z"/><path class="cls-3" d="M121.85,34.83q-4.38.22-8.75.48L113,47.84q4.38-.3,8.76-.54Q121.82,41.06,121.85,34.83Z"/><path class="cls-3" d="M79.94,63.08l7-.76q-1.62-7.53-3.25-15.11Q81.79,55.13,79.94,63.08Z"/><path class="cls-3" d="M155.78,33.8q-4.38,0-8.76.14V46.28c2.92-.06,5.85-.12,8.78-.15Q155.77,40,155.78,33.8Z"/><path class="cls-3" d="M275.33,40.55l.21,38.05,9.95,1.4q-.06-19.17-.12-38.37Z"/><path class="cls-3" d="M140.3,95.39A4.9,4.9,0,0,0,136.5,97a6,6,0,0,0,0,7.85,5.38,5.38,0,0,0,7.61,0h0a6,6,0,0,0,0-7.85A5,5,0,0,0,140.3,95.39Z"/><path class="cls-3" d="M106.23,102.64h-5.78v4.3h5.74a2.28,2.28,0,0,0,2.53-2,2.26,2.26,0,0,0,0-.52C108.68,103.27,107.85,102.69,106.23,102.64Z"/><path class="cls-3" d="M124.09,95.4h-5v3.74H124c1.41,0,2.14-.67,2.18-1.94S125.48,95.45,124.09,95.4Z"/><path class="cls-3" d="M107.55,97c0-.86-.75-1.31-2.14-1.36h-5v3.55h4.92a2,2,0,0,0,2.22-1.76A3.09,3.09,0,0,0,107.55,97Z"/><path class="cls-3" d="M212.55,95.4h-5v3.74h4.93c1.41,0,2.14-.67,2.17-1.94S213.94,95.45,212.55,95.4Z"/><path class="cls-3" d="M311.24,15,159.08,4.86,12.76,15A3.73,3.73,0,0,0,9,18.7H9v86.41a4.85,4.85,0,0,0,3.63,4.52l145.16,31a20.13,20.13,0,0,0,7.26,0l146.24-31a4.85,4.85,0,0,0,3.63-4.52V18.7A3.73,3.73,0,0,0,311.24,15ZM260.82,29.8c0,3.11.05,6.23.07,9.34q-4.68-.48-9.38-.92.18,20.76.34,41.5c-3.33-.43-6.67-.85-10-1.25q-.16-20.58-.34-41.16c-3.13-.27-6.27-.53-9.4-.77,0-3-.05-6.08-.08-9.12q14.4,1,28.79,2.36ZM180,25.05q.06,24.33.13,48.66c-3.39-.09-6.77-.16-10.16-.2q0-24.29-.05-48.59C173.24,24.94,176.6,25,180,25.05Zm-43,.25q10.06-.3,20.11-.37c4.85,0,8.81,3.45,8.81,7.71V47.21c0,4.27-4,7.72-8.84,7.77q-5,.06-10.08.18,0,9.29-.05,18.57c-3.38.1-6.77.23-10.15.39Q136.88,49.72,137,25.3Zm-83.39,64L40.74,91.24c-5.49.84-9.93-2.83-9.93-8.2V41.51c0-5.36,4.53-10.2,10.11-10.75q6.49-.66,13-1.27C59.5,29,64,32.8,64,38l-.06,9.45q-5.8.61-11.58,1.27V40.55l-10,1.08Q42.29,60.82,42.22,80l10-1.4V70.44Q58,69.69,63.76,69l-.06,9.4c0,5.2-4.6,10.08-10.13,10.9ZM88.88,103l-27.52-1.53,27.52-1.93Zm-.06-31.71q-5.5.61-11,1.28l-1.56,7.1q-5.28.69-10.54,1.42,6.07-26.43,12.21-52.3c3.84-.32,7.68-.64,11.52-.93q5.7,24.68,11.43,48.93-5.31.54-10.61,1.15c-.48-2.22-1-4.45-1.45-6.67Zm18,38.42h-9.9V92.12h9.33q4.44.25,4.69,5.17c-.06,1.56-.48,2.6-1.27,3.12a5,5,0,0,1,2.45,4c-.12,3.33-1.93,5.09-5.31,5.28Zm6-34q-5.05.42-10.11.92l.39-49.71q10-.65,20.09-1.09C128,25.6,132,29,132,33.26q0,7.32-.08,14.66c0,3.74-2,6.28-5.7,7.45l6,19c-3.58.19-7.15.41-10.73.67q-2.44-9.2-4.87-18.43l-3.6.26q-.13,9.41-.21,18.82Zm13.74,34-4.2-7.26h-3.21v7.26h-3.52V92.11h7.66c4.11,0,6.16,1.68,6.16,5.06,0,2.54-1.08,4.15-3.24,4.85l4.38,7.66Zm20-2.52a9,9,0,1,1,2.52-6.27,8.53,8.53,0,0,1-2.5,6.24ZM166,95.42h-5.86v14.29h-3.51V95.39H150.8V92.11H166Zm17.83,14.28h-3.51v-7.26h-8.19v7.26h-3.52V92.11h3.52v7h8.19v-7h3.51Zm1.06-84.52q5.16.12,10.32.3,4.31,11.07,8.64,22.26-.06-11-.13-21.93c3.36.14,6.72.31,10.07.49q.18,24.67.35,49.36c-2.94-.25-5.89-.47-8.84-.68q-5.09-13-10.19-25.72l.12,25.07c-3.38-.18-6.77-.33-10.15-.46q-.11-24.36-.17-48.72Zm15.6,70.24h-9.39v3.75h7v3.27h-7v4h9.37v3.28H187.63V92.12h12.91ZM215,109.68l-4.2-7.26h-3.22v7.26h-3.51V92.11h7.66c4.1,0,6.15,1.68,6.15,5.06,0,2.54-1.07,4.15-3.23,4.85l4.38,7.66Zm3.81-83.13c3.36.19,6.71.41,10.07.63q.19,24.95.4,49.87-5-.52-10.1-1-.18-24.73-.36-49.5Zm12.38,81.61a7.11,7.11,0,0,1-4.52,1.52,10.37,10.37,0,0,1-4.09-.7,8.89,8.89,0,0,1-2.81-1.88l2.34-2.34a5.6,5.6,0,0,0,4,1.64c1.56,0,2.53-.33,2.92-1a1.86,1.86,0,0,0,0-2c-.39-.66-1.36-1.07-2.92-1.23a9.34,9.34,0,0,1-3.87-1.29,3.88,3.88,0,0,1-1.76-3.63,4.37,4.37,0,0,1,2-3.74,7,7,0,0,1,4.11-1.41,9.77,9.77,0,0,1,3.79.58,8.18,8.18,0,0,1,2.52,1.76l-2.34,2.34a4.07,4.07,0,0,0-3.28-1.4c-1.41,0-2.31.33-2.7,1a1.38,1.38,0,0,0,0,1.7,4.68,4.68,0,0,0,2.7,1.06,8.74,8.74,0,0,1,4,1.46,4.42,4.42,0,0,1,1.82,3.93,4.53,4.53,0,0,1-1.9,3.63ZM239.4,103V99.52l27.52,1.93Zm57.51-20c0,5.37-4.44,9-9.94,8.2l-12.83-1.9c-5.53-.82-10.08-5.7-10.12-10.9q-.13-20.19-.28-40.4c0-5.2,4.48-9,10.07-8.51q6.49.61,13,1.27c5.58.55,10.12,5.39,10.11,10.75Z"/></svg>